<svg width="63" height="63" viewBox="0 0 63 63" fill="none" xmlns="http://www.w3.org/2000/svg">
<path d="M6.2202 16.9047L31.5 2.3094L56.7798 16.9047V46.0953L31.5 60.6906L6.2202 46.0953V16.9047Z" stroke="#EAE9E8" stroke-width="4"/>
<path fill-rule="evenodd" clip-rule="evenodd" d="M23.3536 23H26.7468C26.9604 23 27.1503 23.1357 27.2197 23.3377L32.2304 37.9342C32.3418 38.2587 32.1007 38.5965 31.7575 38.5965H29.3336C29.1149 38.5965 28.9216 38.4544 28.8564 38.2457L27.9118 35.2228C27.8465 35.0141 27.6532 34.872 27.4345 34.872H22.7946C22.5862 34.872 22.3996 35.0013 22.3265 35.1964L21.1731 38.2721C21.0999 38.4672 20.9133 38.5965 20.7049 38.5965H18.5004C18.1551 38.5965 17.9137 38.2548 18.0292 37.9293L22.8849 24.2451C22.9039 24.1914 22.9137 24.1349 22.9137 24.078V23.4656C22.9137 23.3476 22.9536 23.2096 23.003 23.1124C23.0604 22.9995 23.207 22.9998 23.3355 23C23.3416 23 23.3476 23 23.3536 23ZM25.0087 25.7934L23.1465 31.8458H26.871L25.0087 25.7934Z" fill="#EAE9E8"/>
<path d="M27.2197 23.3377L27.4561 23.2565L27.4561 23.2565L27.2197 23.3377ZM32.2304 37.9342L32.4669 37.853L32.4669 37.853L32.2304 37.9342ZM28.8564 38.2457L28.6178 38.3202L28.6178 38.3202L28.8564 38.2457ZM27.9118 35.2228L27.6732 35.2974L27.6732 35.2974L27.9118 35.2228ZM22.3265 35.1964L22.0924 35.1086L22.0924 35.1086L22.3265 35.1964ZM21.1731 38.2721L20.939 38.1843L20.939 38.1843L21.1731 38.2721ZM18.0292 37.9293L17.7936 37.8457L17.7936 37.8457L18.0292 37.9293ZM22.8849 24.2451L23.1205 24.3287L23.1205 24.3287L22.8849 24.2451ZM23.003 23.1124L22.7802 22.999L22.7802 22.999L23.003 23.1124ZM23.3355 23L23.335 23.25L23.3355 23ZM23.1465 31.8458L22.9075 31.7723L22.808 32.0958H23.1465V31.8458ZM25.0087 25.7934L25.2477 25.7199L25.0087 24.9433L24.7698 25.7199L25.0087 25.7934ZM26.871 31.8458V32.0958H27.2095L27.1099 31.7723L26.871 31.8458ZM26.7468 22.75H23.3536V23.25H26.7468V22.75ZM27.4561 23.2565C27.3521 22.9535 27.0671 22.75 26.7468 22.75V23.25C26.8536 23.25 26.9486 23.3179 26.9832 23.4189L27.4561 23.2565ZM32.4669 37.853L27.4561 23.2565L26.9832 23.4189L31.994 38.0153L32.4669 37.853ZM31.7575 38.8465C32.2722 38.8465 32.634 38.3399 32.4669 37.853L31.994 38.0153C32.0497 38.1776 31.9291 38.3465 31.7575 38.3465V38.8465ZM29.3336 38.8465H31.7575V38.3465H29.3336V38.8465ZM28.6178 38.3202C28.7156 38.6333 29.0056 38.8465 29.3336 38.8465V38.3465C29.2243 38.3465 29.1276 38.2755 29.095 38.1711L28.6178 38.3202ZM27.6732 35.2974L28.6178 38.3202L29.095 38.1711L28.1504 35.1483L27.6732 35.2974ZM27.4345 35.122C27.5439 35.122 27.6405 35.193 27.6732 35.2974L28.1504 35.1483C28.0525 34.8352 27.7626 34.622 27.4345 34.622V35.122ZM22.7946 35.122H27.4345V34.622H22.7946V35.122ZM22.5605 35.2842C22.5971 35.1866 22.6904 35.122 22.7946 35.122V34.622C22.482 34.622 22.2021 34.8159 22.0924 35.1086L22.5605 35.2842ZM21.4072 38.3599L22.5605 35.2842L22.0924 35.1086L20.939 38.1843L21.4072 38.3599ZM20.7049 38.8465C21.0176 38.8465 21.2974 38.6526 21.4072 38.3599L20.939 38.1843C20.9024 38.2819 20.8091 38.3465 20.7049 38.3465V38.8465ZM18.5004 38.8465H20.7049V38.3465H18.5004V38.8465ZM17.7936 37.8457C17.6204 38.3339 17.9824 38.8465 18.5004 38.8465V38.3465C18.3278 38.3465 18.2071 38.1756 18.2648 38.0129L17.7936 37.8457ZM22.6493 24.1615L17.7936 37.8457L18.2648 38.0129L23.1205 24.3287L22.6493 24.1615ZM22.6637 24.078C22.6637 24.1064 22.6588 24.1346 22.6493 24.1615L23.1205 24.3287C23.1491 24.2482 23.1637 24.1635 23.1637 24.078H22.6637ZM22.6637 23.4656V24.078H23.1637V23.4656H22.6637ZM22.7802 22.999C22.7165 23.1243 22.6637 23.301 22.6637 23.4656H23.1637C23.1637 23.3942 23.1907 23.2949 23.2259 23.2257L22.7802 22.999ZM23.336 22.75C23.2787 22.7499 23.1792 22.7485 23.0857 22.7703C22.9843 22.7941 22.8542 22.8535 22.7802 22.999L23.2259 23.2257C23.2196 23.2381 23.2094 23.2488 23.1996 23.2553C23.1918 23.2605 23.1895 23.2595 23.1995 23.2572C23.2097 23.2548 23.2257 23.2525 23.2504 23.2513C23.2752 23.25 23.3018 23.25 23.335 23.25L23.336 22.75ZM23.3536 22.75C23.3479 22.75 23.3421 22.75 23.336 22.75L23.335 23.25C23.3411 23.25 23.3473 23.25 23.3536 23.25V22.75ZM23.3854 31.9193L25.2477 25.867L24.7698 25.7199L22.9075 31.7723L23.3854 31.9193ZM26.871 31.5958H23.1465V32.0958H26.871V31.5958ZM24.7698 25.867L26.6321 31.9193L27.1099 31.7723L25.2477 25.7199L24.7698 25.867Z" fill="#EAE9E8"/>
<path d="M36.7092 33.3169C36.7702 33.5554 36.8136 33.7693 36.8803 33.9765C37.0785 34.5914 37.4367 35.1003 38.0151 35.45C38.4314 35.702 38.8978 35.8395 39.3752 35.944C39.934 36.0657 40.499 36.0761 41.0678 36.0345C41.7208 35.9885 42.3688 35.8921 43.0053 35.7463C43.258 35.6827 43.5069 35.6061 43.7509 35.517C43.8347 35.488 43.8614 35.5102 43.87 35.5808C43.8747 35.6221 43.8767 35.6636 43.8762 35.7052C43.8762 36.4592 43.8762 37.2132 43.8762 37.9672C43.8762 38.2526 43.8419 38.2938 43.5632 38.4028C42.8038 38.6996 42.0068 38.8403 41.1964 38.9303C40.474 39.0064 39.7458 39.0202 39.0207 38.9715C37.7564 38.8928 36.562 38.6001 35.5206 37.8762C34.6243 37.2586 33.9367 36.4066 33.5417 35.4242C33.0862 34.3176 32.9285 33.1622 33.0291 31.986C33.1453 30.6197 33.5655 29.3503 34.4406 28.2378C35.0718 27.4221 35.9223 26.7826 36.9031 26.3862C37.34 26.2093 37.8026 26.1179 38.2737 26.0663C38.9183 25.9962 39.5662 25.9709 40.2103 26.0441C41.5499 26.1971 42.7352 26.6639 43.6256 27.6687C44.1735 28.2885 44.5384 29.0042 44.769 29.785C45.0267 30.6636 45.03 31.5566 44.9638 32.4542C44.9495 32.6533 44.9257 32.8519 44.9066 33.0509C44.89 33.2197 44.8114 33.2916 44.6356 33.3034C44.3188 33.3237 44.0024 33.3617 43.6856 33.364C43.2421 33.3667 42.7981 33.3432 42.3546 33.3305C42.2117 33.3264 42.0687 33.3178 41.9258 33.3178C40.2467 33.3178 38.5674 33.3178 36.8879 33.3178L36.7092 33.3169ZM36.7092 31.0246C36.765 31.0314 36.7917 31.0377 36.8183 31.0377C38.188 31.0377 39.5572 31.0377 40.9263 31.0301C41.1007 31.0301 41.2751 30.9771 41.4504 30.9432C41.5228 30.9287 41.5418 30.8753 41.5428 30.8075C41.5517 30.3509 41.3986 29.9048 41.1083 29.5407C40.3632 28.5726 38.9378 28.5192 38.056 28.9698C37.4477 29.2802 37.0813 29.7742 36.8774 30.3863C36.8093 30.5921 36.7678 30.8061 36.7116 31.0246H36.7092Z" fill="#EAE9E8"/>
</svg>
