<svg width="63" height="63" viewBox="0 0 63 63" fill="none" xmlns="http://www.w3.org/2000/svg">
<path d="M6.2202 16.9047L31.5 2.3094L56.7798 16.9047V46.0953L31.5 60.6906L6.2202 46.0953V16.9047Z" stroke="#EAE9E8" stroke-width="4"/>
<path fill-rule="evenodd" clip-rule="evenodd" d="M26.3536 24.4036H29.7468C29.9604 24.4036 30.1503 24.5392 30.2197 24.7412L35.2304 39.3377C35.3418 39.6622 35.1007 40 34.7575 40H32.3336C32.1149 40 31.9216 39.8579 31.8564 39.6492L30.9118 36.6263C30.8465 36.4176 30.6532 36.2755 30.4345 36.2755H25.7946C25.5862 36.2755 25.3996 36.4048 25.3265 36.5999L24.1731 39.6756C24.0999 39.8707 23.9133 40 23.7049 40H21.5004C21.1551 40 20.9137 39.6583 21.0292 39.3328L25.8849 25.6486C25.9039 25.5949 25.9137 25.5384 25.9137 25.4815V24.8691C25.9137 24.7511 25.9536 24.6131 26.003 24.5159C26.0604 24.403 26.207 24.4033 26.3355 24.4035C26.3416 24.4035 26.3476 24.4036 26.3536 24.4036ZM28.0087 27.1969L26.1465 33.2493H29.871L28.0087 27.1969Z" fill="#EAE9E8"/>
<path d="M30.2197 24.7412L30.4561 24.66L30.4561 24.66L30.2197 24.7412ZM35.2304 39.3377L35.4669 39.2565L35.2304 39.3377ZM31.8564 39.6492L31.6178 39.7237V39.7237L31.8564 39.6492ZM30.9118 36.6263L30.6732 36.7009L30.9118 36.6263ZM25.3265 36.5999L25.0924 36.5121L25.3265 36.5999ZM24.1731 39.6756L23.939 39.5878H23.939L24.1731 39.6756ZM21.0292 39.3328L20.7936 39.2492L21.0292 39.3328ZM25.8849 25.6486L26.1205 25.7322V25.7322L25.8849 25.6486ZM26.003 24.5159L25.7802 24.4025L25.7802 24.4025L26.003 24.5159ZM26.3355 24.4035L26.335 24.6535L26.3355 24.4035ZM26.1465 33.2493L25.9075 33.1758L25.808 33.4993H26.1465V33.2493ZM28.0087 27.1969L28.2477 27.1234L28.0087 26.3469L27.7698 27.1234L28.0087 27.1969ZM29.871 33.2493V33.4993H30.2095L30.1099 33.1758L29.871 33.2493ZM29.7468 24.1536H26.3536V24.6536H29.7468V24.1536ZM30.4561 24.66C30.3521 24.357 30.0671 24.1536 29.7468 24.1536V24.6536C29.8536 24.6536 29.9486 24.7214 29.9832 24.8224L30.4561 24.66ZM35.4669 39.2565L30.4561 24.66L29.9832 24.8224L34.994 39.4188L35.4669 39.2565ZM34.7575 40.25C35.2722 40.25 35.634 39.7434 35.4669 39.2565L34.994 39.4188C35.0497 39.5811 34.9291 39.75 34.7575 39.75V40.25ZM32.3336 40.25H34.7575V39.75H32.3336V40.25ZM31.6178 39.7237C31.7156 40.0368 32.0056 40.25 32.3336 40.25V39.75C32.2243 39.75 32.1276 39.679 32.095 39.5746L31.6178 39.7237ZM30.6732 36.7009L31.6178 39.7237L32.095 39.5746L31.1504 36.5518L30.6732 36.7009ZM30.4345 36.5255C30.5439 36.5255 30.6405 36.5965 30.6732 36.7009L31.1504 36.5518C31.0525 36.2387 30.7626 36.0255 30.4345 36.0255V36.5255ZM25.7946 36.5255H30.4345V36.0255H25.7946V36.5255ZM25.5605 36.6877C25.5971 36.5901 25.6904 36.5255 25.7946 36.5255V36.0255C25.482 36.0255 25.2021 36.2194 25.0924 36.5121L25.5605 36.6877ZM24.4072 39.7634L25.5605 36.6877L25.0924 36.5121L23.939 39.5878L24.4072 39.7634ZM23.7049 40.25C24.0176 40.25 24.2974 40.0561 24.4072 39.7634L23.939 39.5878C23.9024 39.6854 23.8091 39.75 23.7049 39.75V40.25ZM21.5004 40.25H23.7049V39.75H21.5004V40.25ZM20.7936 39.2492C20.6204 39.7374 20.9824 40.25 21.5004 40.25V39.75C21.3278 39.75 21.2071 39.5791 21.2648 39.4164L20.7936 39.2492ZM25.6493 25.565L20.7936 39.2492L21.2648 39.4164L26.1205 25.7322L25.6493 25.565ZM25.6637 25.4815C25.6637 25.5099 25.6588 25.5381 25.6493 25.565L26.1205 25.7322C26.1491 25.6517 26.1637 25.567 26.1637 25.4815H25.6637ZM25.6637 24.8691V25.4815H26.1637V24.8691H25.6637ZM25.7802 24.4025C25.7165 24.5278 25.6637 24.7045 25.6637 24.8691H26.1637C26.1637 24.7977 26.1907 24.6984 26.2259 24.6292L25.7802 24.4025ZM26.336 24.1535C26.2787 24.1534 26.1792 24.152 26.0857 24.1738C25.9843 24.1976 25.8542 24.257 25.7802 24.4025L26.2259 24.6292C26.2196 24.6416 26.2094 24.6523 26.1996 24.6588C26.1918 24.664 26.1895 24.663 26.1995 24.6607C26.2097 24.6583 26.2257 24.656 26.2504 24.6548C26.2752 24.6535 26.3018 24.6535 26.335 24.6535L26.336 24.1535ZM26.3536 24.1536C26.3479 24.1536 26.3421 24.1535 26.336 24.1535L26.335 24.6535C26.3411 24.6535 26.3473 24.6536 26.3536 24.6536V24.1536ZM26.3854 33.3228L28.2477 27.2705L27.7698 27.1234L25.9075 33.1758L26.3854 33.3228ZM29.871 32.9993H26.1465V33.4993H29.871V32.9993ZM27.7698 27.2705L29.6321 33.3228L30.1099 33.1758L28.2477 27.1234L27.7698 27.2705Z" fill="#EAE9E8"/>
<path d="M39.9429 28.1212H37.6839C37.4078 28.1212 37.1839 28.3451 37.1839 28.6212V39.2604C37.1839 39.5365 37.4078 39.7604 37.6839 39.7604H39.9429C40.219 39.7604 40.4429 39.5365 40.4429 39.2604V28.6212C40.4429 28.3451 40.219 28.1212 39.9429 28.1212Z" fill="#EAE9E8" stroke="#EAE9E8"/>
<circle cx="38.8134" cy="25.095" r="2.09505" fill="#EAE9E8"/>
</svg>
