<svg width="64" height="64" viewBox="0 0 64 64" fill="none" xmlns="http://www.w3.org/2000/svg">
<path d="M6.2202 17.9047L31.5 3.3094L56.7798 17.9047V47.0953L31.5 61.6906L6.2202 47.0953V17.9047Z" stroke="#EAE9E8" stroke-width="4"/>
<path fill-rule="evenodd" clip-rule="evenodd" d="M46.8755 31.9268C46.8755 38.5138 40.4115 43.8537 32.4377 43.8537C29.9517 43.8537 27.6124 43.3346 25.57 42.4205C24.1895 42.9981 20.3517 43.5171 18.3139 43.2259C18.3139 43.2259 19.8478 42.6124 22.0057 40.172C19.5243 38.0302 18 35.1256 18 31.9268C18 25.3398 24.464 20 32.4377 20C40.4115 20 46.8755 25.3398 46.8755 31.9268ZM26.3915 34C27.496 34 28.3915 33.1046 28.3915 32C28.3915 30.8954 27.496 30 26.3915 30C25.2869 30 24.3915 30.8954 24.3915 32C24.3915 33.1046 25.2869 34 26.3915 34ZM34.4179 32C34.4179 33.1046 33.5224 34 32.4179 34C31.3133 34 30.4179 33.1046 30.4179 32C30.4179 30.8954 31.3133 30 32.4179 30C33.5224 30 34.4179 30.8954 34.4179 32ZM38.4443 34C39.5488 34 40.4443 33.1046 40.4443 32C40.4443 30.8954 39.5488 30 38.4443 30C37.3397 30 36.4443 30.8954 36.4443 32C36.4443 33.1046 37.3397 34 38.4443 34Z" fill="#D9D9D9"/>
</svg>
