<svg width="63" height="63" viewBox="0 0 63 63" fill="none" xmlns="http://www.w3.org/2000/svg">
<path d="M6.2202 16.9047L31.5 2.3094L56.7798 16.9047V46.0953L31.5 60.6906L6.2202 46.0953V16.9047Z" stroke="#EAE9E8" stroke-width="4"/>
<rect x="23" y="18" width="17.9966" height="9.16191" rx="4.58096" fill="#EAE9E8"/>
<circle cx="36" cy="31.2" r="4" fill="#EAE9E8"/>
<path d="M31.9983 40.9048V27.5478C31.9983 27.1285 31.3936 26.6309 30.9753 26.6578C29.8613 26.7295 28.1935 26.7492 27.7446 26.8347C24.3088 27.4891 23.1636 29.4524 23.1636 31.7429C23.1636 33.1093 24.1452 34.4151 24.9633 35.1786C25.8397 35.9966 26.7629 35.833 27.0902 35.9966C27.0902 35.9966 25.9449 36.3238 24.9633 36.9782C23.9816 37.6327 23 39.1051 23 40.9048C23.1636 42.7044 24.6033 45.1258 27.7446 44.9949C30.8858 44.864 31.8892 42.2136 31.9983 40.9048Z" fill="#EAE9E8"/>
</svg>
