<svg width="63" height="63" viewBox="0 0 63 63" fill="none" xmlns="http://www.w3.org/2000/svg">
<path d="M6.2202 16.9047L31.5 2.3094L56.7798 16.9047V46.0953L31.5 60.6906L6.2202 46.0953V16.9047Z" stroke="#EAE9E8" stroke-width="4"/>
<path d="M19 38.44V35.5147C19 35.5147 20.0189 35.4546 21.5472 36.4498C23.0755 37.4449 23.5849 39.4352 24.6038 39.9327C25.4189 40.3308 26.9811 40.0986 27.6604 39.9327C27.6604 38.7386 28.6792 37.4449 29.1887 36.9473C20.0189 34.957 19.5094 30.4789 19.5094 27.9911C19.5094 25.5032 20.5283 22.0202 21.5472 21.0251C21.0377 19.2007 21.337 15.2299 22.0566 15.0542C23.6868 14.6562 26.4717 16.5469 27.6604 17.5421C28.5094 17.3762 31.003 16.7832 32.7547 16.7832C34.3989 16.7832 36.8302 17.202 37.8491 17.5421C39.3774 16.3811 42.9434 15.0542 43.4528 15.0542C44.1818 15.0542 44.4717 19.0348 43.9623 21.0251C43.9623 21.5226 46 22.0202 46 27.9911C46 33.9619 39.5472 36.6156 36.3208 36.9473C37.5434 37.7434 37.8491 39.2693 37.8491 39.9327L37.678 49.3866C34.2419 50.4733 29.5283 49.8841 27.6604 49.3866V42.9182C23.0755 43.4157 21.5472 40.4303 21.0377 39.4352C20.6302 38.6391 19.5094 38.44 19 38.44Z" fill="#EAE9E8"/>
</svg>
