<svg width="63" height="63" viewBox="0 0 63 63" fill="none" xmlns="http://www.w3.org/2000/svg">
<path d="M6.2202 16.9047L31.5 2.3094L56.7798 16.9047V46.0953L31.5 60.6906L6.2202 46.0953V16.9047Z" stroke="#EAE9E8" stroke-width="4"/>
<path d="M24 27.2814H18L18.1528 45.0116H24V27.2814Z" fill="#EAE9E8"/>
<path d="M33 27.2814H27V45.0116H33V35.7814C33 33.7814 33.5 31.7814 36.5 31.7814C38.9 31.7814 39.3173 34.4481 39.2259 35.7814V45.0116H45.1582C45.1054 41.7682 45 34.7814 45 32.7814C45 30.2814 42 27 39 27C36.3172 27 34 28.5938 33 29.7814V27.2814Z" fill="#EAE9E8"/>
<path d="M24 23.5C24 25.1569 22.6569 26.5 21 26.5C19.3431 26.5 18 25.1569 18 23.5C18 21.8431 21 18 21 18C21 18 24 21.8431 24 23.5Z" fill="#EAE9E8"/>
</svg>
