<svg width="63" height="63" viewBox="0 0 63 63" fill="none" xmlns="http://www.w3.org/2000/svg">
<g filter="url(#filter0_i_514_137)">
<path d="M23.4103 27C23.5672 27.0211 23.7251 27.0356 23.8805 27.0643C24.5667 27.1918 25.1395 27.5055 25.5244 28.1042C25.8213 28.5645 25.9387 29.0749 25.9141 29.6184C25.8916 30.111 25.7425 30.5782 25.5857 31.0415C25.4409 31.4717 25.2761 31.895 25.1187 32.3209C25.0714 32.4489 25.0897 32.4785 25.2282 32.4796C25.387 32.4809 25.5457 32.482 25.7044 32.4845C25.8169 32.4861 25.8446 32.522 25.8167 32.6301C25.7254 32.9791 25.6342 33.328 25.543 33.6769C25.512 33.794 25.463 33.8307 25.3434 33.8312C24.175 33.8356 23.0066 33.8419 21.8382 33.8435C21.4277 33.8435 21.0232 33.7918 20.6386 33.6375C19.9582 33.3638 19.5737 32.8485 19.4303 32.1427C19.3131 31.5664 19.3687 30.9947 19.4908 30.4263C19.6276 29.7851 19.8375 29.1704 20.1868 28.6105C20.7634 27.6847 21.5903 27.1497 22.6801 27.0296C22.757 27.0211 22.8337 27.0104 22.9106 27.0008L23.4103 27ZM22.7477 32.4311V32.441H23.427C23.5639 32.441 23.6093 32.4054 23.646 32.2768C23.8165 31.6747 23.9854 31.0727 24.1575 30.4706C24.2618 30.1061 24.336 29.7399 24.287 29.3571C24.2301 28.911 23.9585 28.579 23.5253 28.4704C23.3509 28.4291 23.1721 28.4092 22.993 28.4113C22.2983 28.4113 21.7942 28.7328 21.4715 29.3448C21.2843 29.7005 21.1775 30.0809 21.0971 30.4712C21.0235 30.8291 20.9808 31.1884 21.036 31.5543C21.1149 32.0743 21.4436 32.3928 21.9682 32.4259C22.2266 32.4446 22.4877 32.4311 22.7477 32.4311Z" fill="#EAE9E8"/>
<path d="M34.9673 31.6479H33.3903C33.2677 31.6479 33.2121 31.6988 33.1987 31.8222C33.159 32.19 33.3369 32.4314 33.7053 32.4878C33.8878 32.5157 34.072 32.5302 34.2565 32.5313C34.946 32.5354 35.6354 32.5313 36.3251 32.5313C36.3977 32.5313 36.4406 32.5811 36.4258 32.6528C36.3507 33.0151 36.275 33.3774 36.1987 33.7395C36.1792 33.8323 36.1251 33.8728 36.0172 33.8736C35.6034 33.8767 35.1897 33.8788 34.776 33.8799C34.4169 33.8799 34.0576 33.8857 33.6988 33.8775C33.283 33.8676 32.8744 33.8123 32.4923 33.6328C32.0172 33.4098 31.7676 33.0269 31.7038 32.5154C31.6491 32.0841 31.7115 31.6602 31.7977 31.2391C31.8976 30.7525 32.0216 30.2736 32.2435 29.825C32.6215 29.0604 33.2357 28.6086 34.0702 28.4499C34.6384 28.3418 35.2079 28.3322 35.775 28.4545C36.1259 28.5301 36.4401 28.6795 36.667 28.9715C36.8733 29.2369 36.9478 29.5475 36.9639 29.8746C36.9913 30.4449 36.8676 30.9947 36.7269 31.5415C36.7067 31.6205 36.6486 31.6496 36.5679 31.6496C36.0345 31.6471 35.501 31.6479 34.9673 31.6479ZM34.4361 30.5316C34.7196 30.5316 35.0032 30.5316 35.2867 30.5316C35.3869 30.5316 35.4405 30.495 35.4534 30.4137C35.5019 30.108 35.4151 29.7999 35.0196 29.6978C34.8246 29.6506 34.6226 29.6393 34.4235 29.6647C33.9725 29.7139 33.6533 29.9383 33.4825 30.3636C33.4308 30.4914 33.4571 30.5316 33.592 30.5319C33.8739 30.5322 34.155 30.5316 34.4361 30.5316Z" fill="#EAE9E8"/>
<path d="M29.1497 33.8159C28.7591 33.8159 28.3688 33.8159 27.9785 33.8159C27.698 33.8159 27.4232 33.7792 27.1638 33.6659C26.7562 33.4878 26.5323 33.164 26.4415 32.7401C26.3547 32.3345 26.3725 31.926 26.4516 31.5242C26.6246 30.6458 26.8134 29.7703 26.996 28.8938C27.0168 28.7947 27.037 28.6956 27.0592 28.5968C27.0847 28.4833 27.1274 28.4477 27.2418 28.4477C27.6191 28.4477 27.9964 28.4477 28.3738 28.4477C28.4871 28.4477 28.5188 28.4874 28.4961 28.5977C28.4236 28.9534 28.3489 29.3092 28.2771 29.6649C28.1496 30.3012 28.0201 30.9369 27.9003 31.5746C27.8706 31.7278 27.8614 31.8842 27.8729 32.0398C27.8964 32.3222 28.0464 32.4812 28.3305 32.5007C28.6751 32.5242 29.0219 32.5168 29.3678 32.5182C29.448 32.5182 29.4962 32.4634 29.5159 32.3723L29.9075 30.5612C30.0491 29.9068 30.1907 29.2523 30.3323 28.5979C30.3567 28.4865 30.4029 28.4482 30.5157 28.448C30.8852 28.448 31.2548 28.448 31.6244 28.448C31.7303 28.448 31.7613 28.4882 31.7416 28.5881C31.3803 30.281 31.019 31.9739 30.6577 33.6667C30.6331 33.7822 30.5888 33.8162 30.4678 33.8164L29.1497 33.8159Z" fill="#EAE9E8"/>
<path d="M42.2385 33.8173H41.6063C41.4656 33.8173 41.4421 33.7899 41.4771 33.6552C41.559 33.3362 41.6412 33.0169 41.7234 32.6974C41.7524 32.5897 41.7509 32.476 41.7193 32.369C41.5205 31.6783 41.3228 30.9874 41.1262 30.2963C41.1172 30.2695 41.1103 30.242 41.1054 30.2142C41.1023 30.2028 41.1019 30.1907 41.1042 30.1791C41.1065 30.1675 41.1114 30.1565 41.1187 30.1471C41.1259 30.1377 41.1352 30.1302 41.1459 30.125C41.1566 30.1198 41.1683 30.1172 41.1802 30.1173C41.2035 30.1152 41.227 30.1143 41.2505 30.1146C41.6773 30.1146 42.104 30.1146 42.5306 30.1146C42.677 30.1146 42.7131 30.1441 42.7451 30.2848C42.7909 30.4846 42.8357 30.6846 42.8845 30.8838C42.8974 30.918 42.9146 30.9504 42.9356 30.9802C42.9639 30.9601 42.9898 30.9368 43.0125 30.9107C43.7148 29.8864 44.4157 28.8611 45.1151 27.8347C45.1953 27.7167 45.2883 27.6661 45.4317 27.6677C45.9077 27.6727 46.3839 27.6677 46.8601 27.6658C46.8704 27.6646 46.8808 27.6646 46.8911 27.6658C46.9275 27.6738 46.9636 27.6833 47.0005 27.6932C46.9904 27.7287 46.976 27.7628 46.9576 27.7947C45.8798 29.2249 44.8015 30.6545 43.7228 32.0836C43.3016 32.643 43.4231 32.4051 43.2301 33.1295C43.1825 33.3074 43.1382 33.4853 43.0916 33.6645C43.0591 33.7888 43.0186 33.8197 42.8877 33.8197L42.2385 33.8173Z" fill="#EAE9E8"/>
<path d="M39.9485 28.4657C40.4612 28.4657 40.9741 28.4614 41.4867 28.4688C41.632 28.4724 41.7764 28.4937 41.9167 28.532C42.2125 28.6102 42.3997 28.8056 42.4758 29.1037C42.5229 29.287 42.5661 29.4712 42.6099 29.6554C42.6299 29.7391 42.5932 29.7821 42.504 29.7821L39.5525 29.7834C39.5251 29.7834 39.5005 29.7834 39.4745 29.7834C39.3675 29.787 39.3163 29.8272 39.2947 29.9304C39.0438 31.1345 38.7931 32.3386 38.5426 33.5428C38.5341 33.5835 38.5248 33.6249 38.5152 33.6645C38.4906 33.7762 38.4528 33.8118 38.3414 33.8123C37.9459 33.8142 37.5504 33.814 37.1549 33.814C37.0797 33.814 37.0455 33.7636 37.0641 33.6788C37.101 33.5039 37.1396 33.3296 37.1768 33.155C37.3618 32.2918 37.5467 31.4288 37.7313 30.5658C37.8718 29.9091 38.0126 29.2528 38.1536 28.5971C38.1753 28.4961 38.224 28.4603 38.3392 28.4603H39.9477L39.9485 28.4657Z" fill="#EAE9E8"/>
<path d="M15.7141 35.9929C15.5189 35.9929 15.3238 35.9943 15.1286 35.9929C15.0123 35.9929 14.9828 35.9538 15.0088 35.8432C15.0925 35.4872 15.177 35.1315 15.2622 34.7759C15.286 34.6768 15.3361 34.6391 15.4412 34.6404C15.5556 34.6404 15.6703 34.6404 15.7847 34.6454C15.846 34.6485 15.9072 34.6383 15.9642 34.6156C16.0212 34.5929 16.0727 34.5581 16.115 34.5137C16.3375 34.2948 16.4585 34.0211 16.5242 33.7223C16.6884 32.9771 16.8458 32.2305 17.0089 31.4854C17.0987 31.0749 17.1942 30.6644 17.2875 30.2552C17.3133 30.1419 17.3601 30.1055 17.4791 30.1055H18.6812C18.8153 30.1055 18.8454 30.14 18.8158 30.2697C18.6221 31.1649 18.4302 32.0606 18.2331 32.9552C18.1253 33.4442 18.0175 33.9333 17.8929 34.4182C17.8078 34.7674 17.658 35.0976 17.4512 35.3916C17.1605 35.7961 16.756 35.9795 16.268 35.9967C16.0836 36.0033 15.8988 35.9967 15.7141 35.9967V35.9929Z" fill="#EAE9E8"/>
<path d="M18.1751 29.7342C17.9723 29.7342 17.7695 29.7342 17.5667 29.7342C17.4441 29.7342 17.417 29.7 17.4432 29.5826C17.5177 29.2511 17.5924 28.9196 17.6674 28.5881C17.6948 28.4696 17.7399 28.4337 17.8636 28.4335H19.0572C19.188 28.4335 19.217 28.4679 19.1897 28.593C19.1167 28.9249 19.0437 29.2567 18.9707 29.5886C18.9475 29.694 18.8993 29.7334 18.7912 29.7339C18.5862 29.735 18.3806 29.7342 18.1751 29.7342Z" fill="#EAE9E8"/>
</g>
<path d="M6.2202 16.9047L31.5 2.3094L56.7798 16.9047V46.0953L31.5 60.6906L6.2202 46.0953V16.9047Z" stroke="#EAE9E8" stroke-width="4"/>
<defs>
<filter id="filter0_i_514_137" x="15" y="27" width="32.0005" height="10.9996" filterUnits="userSpaceOnUse" color-interpolation-filters="sRGB">
<feFlood flood-opacity="0" result="BackgroundImageFix"/>
<feBlend mode="normal" in="SourceGraphic" in2="BackgroundImageFix" result="shape"/>
<feColorMatrix in="SourceAlpha" type="matrix" values="0 0 0 0 0 0 0 0 0 0 0 0 0 0 0 0 0 0 127 0" result="hardAlpha"/>
<feOffset dy="2"/>
<feGaussianBlur stdDeviation="2"/>
<feComposite in2="hardAlpha" operator="arithmetic" k2="-1" k3="1"/>
<feColorMatrix type="matrix" values="0 0 0 0 1 0 0 0 0 1 0 0 0 0 1 0 0 0 0.25 0"/>
<feBlend mode="normal" in2="shape" result="effect1_innerShadow_514_137"/>
</filter>
</defs>
</svg>
