<svg width="88" height="26" viewBox="0 0 88 26" fill="none" xmlns="http://www.w3.org/2000/svg">
<path d="M3.74167 7.6547L13 2.3094L22.2583 7.6547V18.3453L13 23.6906L3.74167 18.3453V7.6547Z" stroke="#EAE9E8" stroke-width="4"/>
<path d="M8.0718 10.1547L13 7.3094L17.9282 10.1547V15.8453L13 18.6906L8.0718 15.8453V10.1547Z" stroke="#1B1C1E" stroke-width="4"/>
<path d="M37.34 20.2C36.02 20.2 34.8867 20 33.94 19.6C32.9933 19.1867 32.2533 18.5733 31.72 17.76C31.1867 16.9467 30.9 15.94 30.86 14.74C30.8467 14.18 30.84 13.58 30.84 12.94C30.84 12.2867 30.8467 11.6733 30.86 11.1C30.9 9.94 31.1867 8.96667 31.72 8.18C32.2667 7.39333 33.02 6.8 33.98 6.4C34.94 6 36.06 5.8 37.34 5.8C38.3667 5.8 39.28 5.92 40.08 6.16C40.88 6.4 41.56 6.72667 42.12 7.14C42.6933 7.55333 43.1267 8.02 43.42 8.54C43.7267 9.04667 43.8867 9.57333 43.9 10.12C43.9 10.24 43.8533 10.3467 43.76 10.44C43.68 10.52 43.58 10.56 43.46 10.56H39.78C39.6467 10.56 39.54 10.54 39.46 10.5C39.38 10.4467 39.3067 10.38 39.24 10.3C39.1733 10.1667 39.0667 10.0133 38.92 9.84C38.7867 9.66667 38.5933 9.52 38.34 9.4C38.0867 9.26667 37.7533 9.2 37.34 9.2C36.7133 9.2 36.2267 9.36 35.88 9.68C35.5333 10 35.3467 10.5067 35.32 11.2C35.28 12.32 35.28 13.4667 35.32 14.64C35.3467 15.4 35.54 15.9533 35.9 16.3C36.2733 16.6333 36.7733 16.8 37.4 16.8C37.8133 16.8 38.18 16.7333 38.5 16.6C38.8333 16.4667 39.0933 16.26 39.28 15.98C39.4667 15.6867 39.56 15.3133 39.56 14.86V14.66H38.14C37.9933 14.66 37.8667 14.6067 37.76 14.5C37.6667 14.3933 37.62 14.2733 37.62 14.14V12.28C37.62 12.1333 37.6667 12.0133 37.76 11.92C37.8667 11.8133 37.9933 11.76 38.14 11.76H43.4C43.5467 11.76 43.6733 11.8133 43.78 11.92C43.8867 12.0133 43.94 12.1333 43.94 12.28V14.72C43.94 15.8933 43.66 16.8867 43.1 17.7C42.54 18.5133 41.7667 19.1333 40.78 19.56C39.7933 19.9867 38.6467 20.2 37.34 20.2ZM46.5066 20C46.3599 20 46.2332 19.9533 46.1266 19.86C46.0199 19.7533 45.9666 19.6267 45.9666 19.48V6.52C45.9666 6.37333 46.0199 6.25333 46.1266 6.16C46.2332 6.05333 46.3599 6 46.5066 6H49.1666C49.4066 6 49.5866 6.06667 49.7066 6.2C49.8266 6.33333 49.9066 6.42667 49.9466 6.48L53.1466 12.04L56.3466 6.48C56.3866 6.42667 56.4666 6.33333 56.5866 6.2C56.7066 6.06667 56.8866 6 57.1266 6H59.7866C59.9332 6 60.0532 6.05333 60.1466 6.16C60.2532 6.25333 60.3066 6.37333 60.3066 6.52V19.48C60.3066 19.6267 60.2532 19.7533 60.1466 19.86C60.0532 19.9533 59.9332 20 59.7866 20H56.7866C56.6399 20 56.5132 19.9533 56.4066 19.86C56.3132 19.7533 56.2666 19.6267 56.2666 19.48V13L54.4666 16.16C54.3999 16.2667 54.3132 16.3733 54.2066 16.48C54.0999 16.5867 53.9466 16.64 53.7466 16.64H52.5266C52.3399 16.64 52.1932 16.5867 52.0866 16.48C51.9799 16.3733 51.8932 16.2667 51.8266 16.16L50.0266 13V19.48C50.0266 19.6267 49.9732 19.7533 49.8666 19.86C49.7732 19.9533 49.6532 20 49.5066 20H46.5066ZM63.3225 20C63.1892 20 63.0692 19.9533 62.9625 19.86C62.8558 19.7533 62.8025 19.6267 62.8025 19.48V6.52C62.8025 6.37333 62.8558 6.25333 62.9625 6.16C63.0692 6.05333 63.1892 6 63.3225 6H66.6425C66.7892 6 66.9158 6.05333 67.0225 6.16C67.1292 6.25333 67.1825 6.37333 67.1825 6.52V16.44H72.9625C73.1092 16.44 73.2358 16.4933 73.3425 16.6C73.4492 16.6933 73.5025 16.8133 73.5025 16.96V19.48C73.5025 19.6267 73.4492 19.7533 73.3425 19.86C73.2358 19.9533 73.1092 20 72.9625 20H63.3225ZM80.9128 20.2C79.6461 20.2 78.5395 20.0067 77.5928 19.62C76.6461 19.22 75.8995 18.62 75.3528 17.82C74.8195 17.02 74.5261 16.0067 74.4728 14.78C74.4595 14.2333 74.4528 13.6467 74.4528 13.02C74.4528 12.3933 74.4595 11.7933 74.4728 11.22C74.5261 10.02 74.8261 9.02 75.3728 8.22C75.9328 7.40667 76.6861 6.8 77.6328 6.4C78.5928 6 79.6861 5.8 80.9128 5.8C81.7928 5.8 82.6128 5.90667 83.3728 6.12C84.1461 6.32 84.8328 6.63333 85.4328 7.06C86.0328 7.47333 86.5061 7.99333 86.8528 8.62C87.1995 9.23333 87.3795 9.95333 87.3928 10.78C87.3928 10.9 87.3461 11 87.2528 11.08C87.1728 11.16 87.0728 11.2 86.9528 11.2H83.5728C83.3728 11.2 83.2261 11.16 83.1328 11.08C83.0395 11 82.9595 10.86 82.8928 10.66C82.7195 10.0867 82.4661 9.7 82.1328 9.5C81.7995 9.3 81.3928 9.2 80.9128 9.2C80.3261 9.2 79.8595 9.36 79.5128 9.68C79.1661 9.98667 78.9795 10.5333 78.9528 11.32C78.9128 12.4133 78.9128 13.5333 78.9528 14.68C78.9795 15.4667 79.1661 16.02 79.5128 16.34C79.8595 16.6467 80.3261 16.8 80.9128 16.8C81.3928 16.8 81.7995 16.6933 82.1328 16.48C82.4795 16.2667 82.7328 15.8867 82.8928 15.34C82.9461 15.1267 83.0195 14.9867 83.1128 14.92C83.2195 14.84 83.3728 14.8 83.5728 14.8H86.9528C87.0728 14.8 87.1728 14.84 87.2528 14.92C87.3461 15 87.3928 15.1 87.3928 15.22C87.3795 16.0467 87.1995 16.7733 86.8528 17.4C86.5061 18.0133 86.0328 18.5333 85.4328 18.96C84.8328 19.3733 84.1461 19.6867 83.3728 19.9C82.6128 20.1 81.7928 20.2 80.9128 20.2Z" fill="#EAE9E8"/>
</svg>
