<svg width="63" height="63" viewBox="0 0 63 63" fill="none" xmlns="http://www.w3.org/2000/svg">
<path d="M6.2202 16.9047L31.5 2.3094L56.7798 16.9047V46.0953L31.5 60.6906L6.2202 46.0953V16.9047Z" stroke="#EAE9E8" stroke-width="4"/>
<path d="M34.0268 36.1884C34.274 36.3188 34.5092 36.457 34.7513 36.5748C35.3119 36.8539 35.8995 37.0581 36.5021 37.1833C36.9702 37.2763 37.4387 37.2937 37.9026 37.1494C37.9796 37.1253 38.0546 37.0936 38.1266 37.0547C38.4835 36.8625 38.6506 36.5001 38.6067 36.0572C38.5551 35.5382 38.2987 35.1783 37.9334 34.8928C37.5869 34.6216 37.1954 34.4677 36.8035 34.3112C36.1903 34.0656 35.594 33.7779 35.0531 33.3624C34.7348 33.1181 34.4518 32.8317 34.2332 32.4701C33.9344 31.975 33.839 31.4222 33.8655 30.8337C33.8967 30.1426 34.0634 29.4998 34.3995 28.9178C34.8337 28.1672 35.4388 27.6574 36.1672 27.321C37.0318 26.922 37.9342 26.8163 38.8585 26.9002C39.7054 26.9767 40.4961 27.2675 41.2514 27.6943C41.2673 27.7044 41.281 27.7184 41.2915 27.7352C41.3021 27.7521 41.3091 27.7713 41.3122 27.7917C41.3149 28.6992 41.3122 29.6071 41.3122 30.5147C41.3103 30.5262 41.3075 30.5376 41.3037 30.5486L41.2163 30.5003C40.5709 30.1307 39.8881 29.8508 39.183 29.6667C38.7595 29.5598 38.3311 29.5163 37.9022 29.635C37.8127 29.6598 37.7255 29.6945 37.642 29.7384C37.3548 29.8871 37.18 30.1296 37.1469 30.4947C37.1127 30.8802 37.2724 31.1466 37.5442 31.3487C37.8787 31.5978 38.2498 31.7577 38.6221 31.9138C39.1418 32.1311 39.6646 32.3362 40.1469 32.6505C40.6912 33.0047 41.1655 33.4428 41.4904 34.0626C41.7227 34.5151 41.861 35.0213 41.8946 35.543C41.9489 36.2588 41.8623 36.9508 41.589 37.6058C41.2425 38.4368 40.6797 39.0209 39.9567 39.4186C39.3654 39.7433 38.7345 39.9028 38.0828 39.9663C37.6717 40.0092 37.258 40.0111 36.8466 39.9719C36.3688 39.9176 35.8976 39.8051 35.4412 39.6364C34.9808 39.4714 34.5339 39.262 34.1053 39.0105C34.0522 38.9797 34.0199 38.9492 34.0199 38.871C34.0226 38.0017 34.0199 37.1324 34.0199 36.2632C34.0218 36.2384 34.0249 36.2145 34.0268 36.1884Z" fill="#EAE9E8"/>
<path d="M25.3 34.561V40H22.0085C22.0085 39.9641 22.0028 39.9274 22.0028 39.8906C22.0028 34.3193 22.0019 28.7489 22 23.1794C22 23.105 22 23.0569 22.0944 23.0556C23.6545 23.0377 25.215 23.0035 26.7762 23C27.6523 22.9978 28.5162 23.1269 29.3512 23.4314C30.3612 23.8003 31.2056 24.4098 31.7894 25.3907C32.2184 26.1136 32.4806 26.936 32.5544 27.7897C32.6556 28.7887 32.543 29.7994 32.225 30.7444C31.9115 31.6693 31.3562 32.3983 30.6548 33.0161C29.7933 33.7743 28.8036 34.2057 27.7126 34.3987C26.9541 34.5326 26.1888 34.5374 25.4242 34.5606C25.3876 34.5619 25.3517 34.561 25.3 34.561ZM25.3 25.6896V25.8103C25.3 27.683 25.2991 29.5558 25.2972 31.4287C25.2972 31.532 25.3281 31.5626 25.4193 31.56C25.7352 31.56 26.0508 31.56 26.3667 31.56C26.6894 31.5627 27.011 31.5201 27.3234 31.4331C28.2117 31.1771 28.8452 30.6127 29.1395 29.6593C29.3336 29.0299 29.3465 28.3523 29.1766 27.7149C28.9421 26.7961 28.4096 26.1665 27.566 25.8528C27.2534 25.7415 26.926 25.6857 26.5967 25.6874C26.1721 25.6865 25.7446 25.6896 25.3013 25.6896H25.3Z" fill="#EAE9E8"/>
</svg>
