<svg width="63" height="63" viewBox="0 0 63 63" fill="none" xmlns="http://www.w3.org/2000/svg">
<path d="M6.2202 16.9047L31.5 2.3094L56.7798 16.9047V46.0953L31.5 60.6906L6.2202 46.0953V16.9047Z" stroke="#EAE9E8" stroke-width="4"/>
<g filter="url(#filter0_i_514_55)">
<path d="M40.5212 32.3361C39.6471 32.3408 38.8902 32.5425 38.2554 32.8427C38.021 32.3971 37.7866 32.0078 37.7475 31.717C37.7036 31.3792 37.6499 31.1728 37.7036 30.7695C37.7573 30.3661 38.0014 29.7938 38.0014 29.7469C37.9966 29.7047 37.9477 29.4983 37.4448 29.4936C36.9418 29.4889 36.5072 29.5874 36.4583 29.7141C36.4095 29.8407 36.3118 30.1315 36.2484 30.4317C36.1605 30.8726 35.2424 32.4346 34.7199 33.2555C34.549 32.9365 34.4025 32.6551 34.3732 32.4299C34.3293 32.0922 34.2755 31.8858 34.3293 31.4824C34.383 31.079 34.6271 30.5068 34.6271 30.4599C34.6222 30.4177 34.5734 30.2113 34.0704 30.2066C33.5675 30.2019 33.1329 30.3004 33.084 30.427C33.0352 30.5537 32.9815 30.8539 32.874 31.1447C32.7715 31.4355 31.5507 34.0435 31.2333 34.7236C31.0721 35.0707 30.9305 35.3474 30.828 35.5351C30.7254 35.7227 30.8231 35.5491 30.8133 35.5679C30.7254 35.7274 30.6766 35.8165 30.6766 35.8165V35.8212C30.6082 35.9385 30.535 36.051 30.5008 36.051C30.4764 36.051 30.4275 35.7368 30.5106 35.3052C30.6912 34.4 31.1307 32.9881 31.1258 32.9365C31.1258 32.913 31.2089 32.6644 30.8426 32.5378C30.4861 32.4112 30.3592 32.6222 30.3299 32.6222C30.3006 32.6222 30.2762 32.6973 30.2762 32.6973C30.2762 32.6973 30.6717 31.1072 29.5193 31.1072C28.7965 31.1072 27.8004 31.8624 27.3072 32.5519C26.9946 32.716 26.3305 33.0631 25.6273 33.4337C25.3587 33.5744 25.0804 33.7245 24.8167 33.8605L24.763 33.8043C23.3664 32.3736 20.7831 31.3605 20.8906 29.4373C20.9296 28.7384 21.1836 26.895 25.8519 24.6623C29.6755 22.833 32.7373 23.3349 33.2696 24.4513C34.0265 26.0461 31.6337 29.0105 27.6587 29.4373C26.1449 29.6015 25.349 29.0386 25.1488 28.8276C24.9388 28.6071 24.9095 28.5977 24.8314 28.6399C24.7044 28.7056 24.7825 28.9026 24.8314 29.0199C24.9486 29.3154 25.4369 29.8407 26.267 30.1034C26.9946 30.3332 28.7721 30.4599 30.9208 29.6625C33.3282 28.7666 35.2082 26.2806 34.6564 24.2027C34.0949 22.0872 30.4422 21.393 26.9897 22.5703C24.9339 23.2739 22.7071 24.3715 21.1054 25.8115C19.201 27.5189 18.8982 29.0105 19.0252 29.6296C19.4696 31.8389 22.6388 33.2789 23.9084 34.3437C23.8449 34.3765 23.7863 34.4093 23.7326 34.4375C23.0978 34.7377 20.6806 35.9525 20.0751 37.2377C19.3914 38.6918 20.1825 39.7378 20.7099 39.8785C22.3409 40.3148 24.011 39.5314 24.9144 38.2415C25.8129 36.9516 25.7055 35.2771 25.2904 34.5125L25.2757 34.4844L25.7738 34.203C26.0961 34.02 26.4135 33.8512 26.6919 33.7058C26.5356 34.1138 26.4233 34.597 26.3647 35.3005C26.2963 36.1261 26.6479 37.1955 27.1118 37.6177C27.3169 37.8006 27.5611 37.8053 27.7125 37.8053C28.2496 37.8053 28.4938 37.3785 28.7624 36.8672C29.0944 36.2433 29.3874 35.521 29.3874 35.521C29.3874 35.521 29.0212 37.477 30.0222 37.477C30.3885 37.477 30.7547 37.022 30.9208 36.7875V36.7921C30.9208 36.7921 30.9305 36.7781 30.9501 36.7452C30.9891 36.689 31.0086 36.6561 31.0086 36.6561V36.6467C31.1551 36.4028 31.4823 35.8447 31.9706 34.9206C32.6006 33.7292 33.2061 32.2376 33.2061 32.2376C33.2061 32.2376 33.2647 32.6035 33.4454 33.2039C33.5528 33.5603 33.7872 33.9497 33.9679 34.3296C33.8214 34.5266 33.7335 34.6392 33.7335 34.6392L33.7384 34.6439C33.6212 34.794 33.4893 34.9534 33.3526 35.1129C32.8545 35.6852 32.2588 36.3372 32.1806 36.5248C32.0878 36.7452 32.1074 36.9094 32.2881 37.0407C32.4199 37.1346 32.6543 37.1533 32.9033 37.1346C33.3526 37.1064 33.6651 36.9985 33.8214 36.9329C34.0656 36.8484 34.3439 36.7218 34.6125 36.5342C35.1008 36.1871 35.3987 35.6946 35.3694 35.0379C35.3547 34.6767 35.2327 34.3202 35.0813 33.9825C35.1252 33.9215 35.1692 33.8605 35.2131 33.7949C35.9847 32.7114 36.5804 31.5199 36.5804 31.5199C36.5804 31.5199 36.639 31.8858 36.8197 32.4862C36.9125 32.7911 37.098 33.1241 37.2641 33.4525C36.5414 34.02 36.0872 34.6767 35.931 35.1082C35.6428 35.9056 35.8675 36.2668 36.2923 36.3512C36.4828 36.3888 36.7562 36.3043 36.9613 36.2199C37.2152 36.1402 37.5229 36.0041 37.8061 35.8024C38.2944 35.4553 38.7632 34.9722 38.7388 34.3202C38.7242 34.02 38.6412 33.7245 38.5288 33.4431C39.1441 33.1992 39.9401 33.0585 40.9509 33.1757C43.124 33.4196 43.5537 34.7236 43.4707 35.2677C43.3877 35.8118 42.9335 36.112 42.7821 36.2058C42.6308 36.2949 42.5819 36.3278 42.5966 36.3934C42.6161 36.4919 42.6845 36.4873 42.8163 36.4685C42.997 36.4404 43.959 36.0229 43.9981 35.0191C44.0567 33.7292 42.7821 32.322 40.5212 32.3361V32.3361ZM23.7619 37.7631C23.0441 38.5183 22.0333 38.8044 21.6035 38.5605C21.1396 38.3025 21.3203 37.1908 22.2042 36.3888C22.7413 35.9009 23.4396 35.4506 23.8987 35.1739C24.0012 35.1129 24.1575 35.0238 24.343 34.9159C24.3723 34.8972 24.3919 34.8878 24.3919 34.8878C24.426 34.869 24.4651 34.8456 24.5042 34.8221C24.8314 35.9666 24.5188 36.9704 23.7619 37.7631V37.7631ZM29.0114 34.3343C28.7624 34.9206 28.235 36.4263 27.9176 36.3419C27.6441 36.2715 27.4781 35.1317 27.8638 34.0059C28.0592 33.4384 28.4742 32.7629 28.7184 32.5003C29.114 32.0781 29.5437 31.9374 29.6511 32.111C29.7781 32.3361 29.1677 33.9684 29.0114 34.3343ZM33.3428 36.3231C33.2354 36.3747 33.1377 36.4122 33.0938 36.3841C33.0596 36.3653 33.1377 36.2949 33.1377 36.2949C33.1377 36.2949 33.6798 35.7368 33.8946 35.4788C34.0167 35.3287 34.1632 35.1551 34.3195 34.9581V35.0144C34.3195 35.6899 33.6456 36.1402 33.3428 36.3231V36.3231ZM36.683 35.5914C36.6048 35.5351 36.6146 35.3615 36.8783 34.8174C36.9809 34.6017 37.2152 34.2405 37.6206 33.8981C37.6694 34.0388 37.6987 34.1748 37.6938 34.3015C37.6889 35.1458 37.0639 35.46 36.683 35.5914Z" fill="#EAE9E8"/>
</g>
<defs>
<filter id="filter0_i_514_55" x="19" y="22" width="25" height="20" filterUnits="userSpaceOnUse" color-interpolation-filters="sRGB">
<feFlood flood-opacity="0" result="BackgroundImageFix"/>
<feBlend mode="normal" in="SourceGraphic" in2="BackgroundImageFix" result="shape"/>
<feColorMatrix in="SourceAlpha" type="matrix" values="0 0 0 0 0 0 0 0 0 0 0 0 0 0 0 0 0 0 127 0" result="hardAlpha"/>
<feOffset dy="2"/>
<feGaussianBlur stdDeviation="2"/>
<feComposite in2="hardAlpha" operator="arithmetic" k2="-1" k3="1"/>
<feColorMatrix type="matrix" values="0 0 0 0 1 0 0 0 0 1 0 0 0 0 1 0 0 0 0.25 0"/>
<feBlend mode="normal" in2="shape" result="effect1_innerShadow_514_55"/>
</filter>
</defs>
</svg>
