<svg width="296" height="58" viewBox="0 0 296 58" fill="none" xmlns="http://www.w3.org/2000/svg">
<path d="M26.76 57.8C20.84 57.8 15.96 57 12.12 55.4C8.28 53.8 5.4 51.6933 3.48 49.08C1.56 46.4667 0.546667 43.6933 0.44 40.76C0.44 40.28 0.6 39.88 0.92 39.56C1.29333 39.1867 1.72 39 2.2 39H17.4C18.2533 39 18.8933 39.1333 19.32 39.4C19.8 39.6133 20.3067 39.9333 20.84 40.36C21.3733 40.7333 21.9067 41.08 22.44 41.4C23.0267 41.6667 23.6667 41.88 24.36 42.04C25.1067 42.1467 25.9067 42.2 26.76 42.2C28.5733 42.2 30.0133 42.0133 31.08 41.64C32.2 41.2133 32.76 40.6533 32.76 39.96C32.76 39.32 32.44 38.7867 31.8 38.36C31.2133 37.9333 30.1733 37.56 28.68 37.24C27.1867 36.8667 25.1067 36.52 22.44 36.2C18.2267 35.6133 14.5733 34.6267 11.48 33.24C8.38667 31.8533 5.98667 29.96 4.28 27.56C2.62667 25.1067 1.8 22.12 1.8 18.6C1.8 14.9733 2.81333 11.7733 4.84 9C6.92 6.22667 9.77333 4.06666 13.4 2.52C17.08 0.97333 21.3467 0.199997 26.2 0.199997C30.2 0.199997 33.7467 0.73333 36.84 1.8C39.9333 2.81333 42.5467 4.17333 44.68 5.88C46.8133 7.53333 48.44 9.32 49.56 11.24C50.68 13.16 51.2667 15 51.32 16.76C51.32 17.24 51.1333 17.6667 50.76 18.04C50.44 18.36 50.0667 18.52 49.64 18.52H33.64C32.8933 18.52 32.28 18.4133 31.8 18.2C31.3733 17.9867 30.92 17.6667 30.44 17.24C30.1733 16.9733 29.6667 16.68 28.92 16.36C28.2267 15.9867 27.32 15.8 26.2 15.8C24.8667 15.8 23.88 16.0133 23.24 16.44C22.6533 16.8133 22.36 17.3467 22.36 18.04C22.36 18.52 22.6 18.9733 23.08 19.4C23.56 19.8267 24.44 20.2 25.72 20.52C27 20.84 28.84 21.16 31.24 21.48C36.5733 22.12 40.84 23.16 44.04 24.6C47.2933 25.9867 49.64 27.8533 51.08 30.2C52.5733 32.5467 53.32 35.4533 53.32 38.92C53.32 42.8133 52.1467 46.1733 49.8 49C47.5067 51.8267 44.36 54.0133 40.36 55.56C36.36 57.0533 31.8267 57.8 26.76 57.8ZM61.3413 57C60.7546 57 60.2479 56.7867 59.8213 56.36C59.3946 55.9333 59.1813 55.4267 59.1813 54.84V3.16C59.1813 2.57333 59.3946 2.06667 59.8213 1.64C60.2479 1.21333 60.7546 0.999996 61.3413 0.999996H76.6213C77.2079 0.999996 77.7146 1.21333 78.1413 1.64C78.5679 2.06667 78.7813 2.57333 78.7813 3.16V19L87.8213 2.76C88.0879 2.33333 88.4613 1.93333 88.9413 1.56C89.4746 1.18666 90.1679 0.999996 91.0213 0.999996H108.701C109.181 0.999996 109.581 1.18666 109.901 1.56C110.275 1.88 110.461 2.28 110.461 2.76C110.461 3.08 110.381 3.37333 110.221 3.64L95.8213 27.8L111.581 54.36C111.741 54.5733 111.821 54.8667 111.821 55.24C111.821 55.72 111.635 56.1467 111.261 56.52C110.941 56.84 110.541 57 110.061 57H91.8213C90.7546 57 89.9546 56.76 89.4213 56.28C88.9413 55.7467 88.6479 55.3733 88.5413 55.16L78.7813 37.72V54.84C78.7813 55.4267 78.5679 55.9333 78.1413 56.36C77.7146 56.7867 77.2079 57 76.6213 57H61.3413ZM118.529 57C117.942 57 117.435 56.7867 117.009 56.36C116.582 55.9333 116.369 55.4267 116.369 54.84V3.16C116.369 2.57333 116.582 2.06667 117.009 1.64C117.435 1.21333 117.942 0.999996 118.529 0.999996H134.849C135.435 0.999996 135.942 1.21333 136.369 1.64C136.795 2.06667 137.009 2.57333 137.009 3.16V54.84C137.009 55.4267 136.795 55.9333 136.369 56.36C135.942 56.7867 135.435 57 134.849 57H118.529ZM147.982 57C147.395 57 146.889 56.7867 146.462 56.36C146.035 55.9333 145.822 55.4267 145.822 54.84V3.16C145.822 2.57333 146.035 2.06667 146.462 1.64C146.889 1.21333 147.395 0.999996 147.982 0.999996H163.982C164.569 0.999996 165.075 1.21333 165.502 1.64C165.929 2.06667 166.142 2.57333 166.142 3.16V40.6H188.302C188.889 40.6 189.395 40.8133 189.822 41.24C190.249 41.6667 190.462 42.1733 190.462 42.76V54.84C190.462 55.4267 190.249 55.9333 189.822 56.36C189.395 56.7867 188.889 57 188.302 57H147.982ZM198.06 57C197.473 57 196.967 56.7867 196.54 56.36C196.113 55.9333 195.9 55.4267 195.9 54.84V3.16C195.9 2.57333 196.113 2.06667 196.54 1.64C196.967 1.21333 197.473 0.999996 198.06 0.999996H214.06C214.647 0.999996 215.153 1.21333 215.58 1.64C216.007 2.06667 216.22 2.57333 216.22 3.16V40.6H238.38C238.967 40.6 239.473 40.8133 239.9 41.24C240.327 41.6667 240.54 42.1733 240.54 42.76V54.84C240.54 55.4267 240.327 55.9333 239.9 56.36C239.473 56.7867 238.967 57 238.38 57H198.06ZM269.338 57.8C263.418 57.8 258.538 57 254.698 55.4C250.858 53.8 247.978 51.6933 246.058 49.08C244.138 46.4667 243.125 43.6933 243.018 40.76C243.018 40.28 243.178 39.88 243.498 39.56C243.871 39.1867 244.298 39 244.778 39H259.978C260.831 39 261.471 39.1333 261.898 39.4C262.378 39.6133 262.885 39.9333 263.418 40.36C263.951 40.7333 264.485 41.08 265.018 41.4C265.605 41.6667 266.245 41.88 266.938 42.04C267.685 42.1467 268.485 42.2 269.338 42.2C271.151 42.2 272.591 42.0133 273.658 41.64C274.778 41.2133 275.338 40.6533 275.338 39.96C275.338 39.32 275.018 38.7867 274.378 38.36C273.791 37.9333 272.751 37.56 271.258 37.24C269.765 36.8667 267.685 36.52 265.018 36.2C260.805 35.6133 257.151 34.6267 254.058 33.24C250.965 31.8533 248.565 29.96 246.858 27.56C245.205 25.1067 244.378 22.12 244.378 18.6C244.378 14.9733 245.391 11.7733 247.418 9C249.498 6.22667 252.351 4.06666 255.978 2.52C259.658 0.97333 263.925 0.199997 268.778 0.199997C272.778 0.199997 276.325 0.73333 279.418 1.8C282.511 2.81333 285.125 4.17333 287.258 5.88C289.391 7.53333 291.018 9.32 292.138 11.24C293.258 13.16 293.845 15 293.898 16.76C293.898 17.24 293.711 17.6667 293.338 18.04C293.018 18.36 292.645 18.52 292.218 18.52H276.218C275.471 18.52 274.858 18.4133 274.378 18.2C273.951 17.9867 273.498 17.6667 273.018 17.24C272.751 16.9733 272.245 16.68 271.498 16.36C270.805 15.9867 269.898 15.8 268.778 15.8C267.445 15.8 266.458 16.0133 265.818 16.44C265.231 16.8133 264.938 17.3467 264.938 18.04C264.938 18.52 265.178 18.9733 265.658 19.4C266.138 19.8267 267.018 20.2 268.298 20.52C269.578 20.84 271.418 21.16 273.818 21.48C279.151 22.12 283.418 23.16 286.618 24.6C289.871 25.9867 292.218 27.8533 293.658 30.2C295.151 32.5467 295.898 35.4533 295.898 38.92C295.898 42.8133 294.725 46.1733 292.378 49C290.085 51.8267 286.938 54.0133 282.938 55.56C278.938 57.0533 274.405 57.8 269.338 57.8Z" fill="#EAE9E8"/>
</svg>
